<svg xmlns="http://www.w3.org/2000/svg" viewBox="0 0 84 78">
  <defs>
    <style>
      .cls-1 {
        fill: #fff;
      }
    </style>
  </defs>
  <g id="Слой_2" data-name="Слой 2">
    <g id="Group_2" data-name="Group 2">
      <g id="heart">
        <path class="cls-1" d="M23.22,3A19.53,19.53,0,0,1,37.51,9.29l2.34,2.46L42,14.05l2.17-2.3,2.3-2.43A19.4,19.4,0,0,1,75,9.3a22,22,0,0,1,6,15.32,22.11,22.11,0,0,1-6,15.31L42,74.68,9,39.86a22.13,22.13,0,0,1-6-15.3A22,22,0,0,1,9,9.25,19.5,19.5,0,0,1,23.22,3m0-3A22.5,22.5,0,0,0,6.8,7.18,25,25,0,0,0,0,24.56,25.07,25.07,0,0,0,6.84,41.92L40.28,77.25A2.35,2.35,0,0,0,42,78a2.31,2.31,0,0,0,1.69-.73L77.18,42A25.14,25.14,0,0,0,84,24.62,25,25,0,0,0,77.21,7.24a22.4,22.4,0,0,0-32.89,0L42,9.69,39.69,7.22A22.58,22.58,0,0,0,23.22,0Z" transform="translate(0 0)"/>
      </g>
    </g>
  </g>
</svg>
