<svg xmlns="http://www.w3.org/2000/svg" viewBox="0 0 2055.03 2222.99">
  <defs>
    <style>
      svg{    
        background:#dfdad4;
      }
      .cls-1 {
        isolation: isolate;
      }

      .cls-2 {
        fill: #e4e1dc;
      }
    </style>
  </defs>
  <g id="Rectangle_4" data-name="Rectangle 4" class="cls-1">
    <g id="Rectangle_4-2" data-name="Rectangle 4">
      <polygon class="cls-2" points="1518.15 1357.99 1597.01 1357.99 1597.01 1337.05 2055.03 1387.84 1597.01 1188.48 1597.01 1126.87 2053.71 1001.82 1597.01 978.34 1597.01 938.99 1523.97 938.99 1928.62 629.03 1396.09 810.81 1694.84 314.43 1267.3 685.54 1380.57 95.97 1109.59 611.64 1023.72 0 941.98 598.04 667.33 38.09 784.68 646.37 354.38 205.65 656.67 750.8 122.62 482.46 573.4 898.73 0 835.15 441.01 1027.11 441.01 1100.77 1.32 1221.17 441.01 1243.78 441.01 1352.97 126.41 1593.96 658.93 1412.18 360.19 1908.55 787.72 1537.45 674.45 2127.01 945.43 1611.34 1031.3 2222.99 1113.05 1624.94 1387.7 2184.9 1270.34 1576.62 1700.65 2017.34 1398.35 1472.19 1932.41 1740.52 1518.15 1357.99"/>
    </g>
  </g>
</svg>
